# xmcd
#
# Track frame offsets:
#	150
#	18305
#	38682
#	58419
#	87342
#	103332
#	124743
#	158178
#	175813
#	192766
#	212843
#	240663
#	264752
#	283374
#	300755
#	325982
#	340604
#
# Disc length: 4697 seconds
#
# Revision: 1
# Processed by: cddbd v1.5.2PL0 Copyright (c) Steve Scherf et al.
# Submitted via: audiograbber 1.83.01
#
DISCID=eb125711
DTITLE=Steve Earle - Copperhead Road (Deluxe Edition - CD 2)
DYEAR=2008
DGENRE=Country
TTITLE0=The Devil's Right Hand
TTITLE1=Fearless Heart
TTITLE2=San Antonio Girl
TTITLE3=Nobody But You/continental Trailways Bus
TTITLE4=My Baby Worships Me
TTITLE5=Wheels
TTITLE6=The Week Of Living Dangerously
TTITLE7=Johnny Come Lately (solo)
TTITLE8=Brown And Root
TTITLE9=I Love You Too Much
TTITLE10=It's All Up To You
TTITLE11=Nebraska (solo)
TTITLE12=Copperhead Road
TTITLE13=I Ain't Ever Satisfied
TTITLE14=Dead Flowers
TTITLE15=Little Sister (solo)
TTITLE16=Guitar Town
EXTD=
EXTT0=
EXTT1=
EXTT2=
EXTT3=
EXTT4=
EXTT5=
EXTT6=
EXTT7=
EXTT8=
EXTT9=
EXTT10=
EXTT11=
EXTT12=
EXTT13=
EXTT14=
EXTT15=
EXTT16=
PLAYORDER=
